<svg width="1200" height="720" viewBox="0 0 1200 720" fill="none" xmlns="http://www.w3.org/2000/svg">
  <rect width="1200" height="720" rx="36" fill="#FFF7ED"/>
  <rect x="24" y="24" width="1152" height="672" rx="28" fill="url(#paint0_linear)"/>
  <circle cx="972" cy="132" r="150" fill="#FB923C" fill-opacity="0.18"/>
  <circle cx="180" cy="590" r="138" fill="#FDBA74" fill-opacity="0.18"/>
  <rect x="90" y="90" width="348" height="70" rx="35" fill="#FFFFFF" fill-opacity="0.88"/>
  <text x="125" y="134" fill="#C2410C" font-family="Segoe UI, Arial, sans-serif" font-size="28" font-weight="700" letter-spacing="4">ROUTE PREVIEW</text>
  <text x="92" y="236" fill="#0F172A" font-family="Segoe UI, Arial, sans-serif" font-size="64" font-weight="800">VeXe Trip Story</text>
  <text x="92" y="286" fill="#475569" font-family="Segoe UI, Arial, sans-serif" font-size="28" font-weight="500">Reserved space for route image, bus photo, or map overview.</text>
  <rect x="92" y="354" width="1016" height="212" rx="30" fill="#FFFFFF" fill-opacity="0.92" stroke="#FED7AA" stroke-width="2"/>
  <circle cx="177" cy="460" r="36" fill="#F97316"/>
  <text x="164" y="470" fill="white" font-family="Segoe UI, Arial, sans-serif" font-size="28" font-weight="800">A</text>
  <text x="235" y="444" fill="#94A3B8" font-family="Segoe UI, Arial, sans-serif" font-size="20" font-weight="600" letter-spacing="3">PICKUP</text>
  <text x="235" y="485" fill="#0F172A" font-family="Segoe UI, Arial, sans-serif" font-size="34" font-weight="700">Origin station</text>
  <path d="M495 460H735" stroke="#FDBA74" stroke-width="8" stroke-linecap="round" stroke-dasharray="18 18"/>
  <rect x="576" y="424" width="78" height="72" rx="20" fill="#FFF7ED" stroke="#FED7AA" stroke-width="2"/>
  <path d="M600 461H630" stroke="#EA580C" stroke-width="6" stroke-linecap="round"/>
  <path d="M621 446L638 461L621 476" stroke="#EA580C" stroke-width="6" stroke-linecap="round" stroke-linejoin="round"/>
  <circle cx="823" cy="460" r="36" fill="#E2E8F0"/>
  <text x="810" y="470" fill="#334155" font-family="Segoe UI, Arial, sans-serif" font-size="28" font-weight="800">B</text>
  <text x="881" y="444" fill="#94A3B8" font-family="Segoe UI, Arial, sans-serif" font-size="20" font-weight="600" letter-spacing="3">DROPOFF</text>
  <text x="881" y="485" fill="#0F172A" font-family="Segoe UI, Arial, sans-serif" font-size="34" font-weight="700">Destination station</text>
  <rect x="92" y="606" width="390" height="46" rx="23" fill="#FFFFFF" fill-opacity="0.82"/>
  <text x="122" y="636" fill="#475569" font-family="Segoe UI, Arial, sans-serif" font-size="22" font-weight="600">Attach a real image URL anytime</text>
  <defs>
    <linearGradient id="paint0_linear" x1="70" y1="45" x2="1084" y2="688" gradientUnits="userSpaceOnUse">
      <stop stop-color="#FFFFFF"/>
      <stop offset="0.58" stop-color="#FFF7ED"/>
      <stop offset="1" stop-color="#FFEDD5"/>
    </linearGradient>
  </defs>
</svg>
